<svg width="31" height="30" viewBox="0 0 31 30" fill="none" xmlns="http://www.w3.org/2000/svg">
<path d="M13.0879 25.6287C13.0879 25.4454 13.0475 25.2643 12.9697 25.0983C12.8919 24.9323 12.7785 24.7855 12.6377 24.6682C12.4968 24.5509 12.3318 24.466 12.1545 24.4195C11.9771 24.3731 11.7917 24.3662 11.6115 24.3994C9.9751 24.6997 7.90906 24.7449 7.35974 23.2019C6.88075 22.0069 6.08733 20.9638 5.0636 20.1832C4.99056 20.1434 4.92094 20.0977 4.85548 20.0464C4.76588 19.8101 4.60674 19.6065 4.39905 19.4624C4.19137 19.3184 3.94489 19.2407 3.69214 19.2396H3.68604C3.35554 19.2394 3.03845 19.3703 2.80418 19.6034C2.56991 19.8365 2.43754 20.153 2.43604 20.4835C2.43115 21.5028 3.44979 22.1558 3.86304 22.3768C4.35034 22.8664 4.74198 23.4427 5.01783 24.076C5.47315 25.3553 6.79639 27.2962 10.6001 27.046C10.6014 27.0899 10.6025 27.1314 10.6031 27.1693L10.6086 27.5037C10.6086 27.8353 10.7403 28.1532 10.9748 28.3876C11.2092 28.6221 11.5271 28.7537 11.8586 28.7537C12.1902 28.7537 12.5081 28.6221 12.7425 28.3876C12.9769 28.1532 13.1086 27.8353 13.1086 27.5037L13.1025 27.1058C13.0964 26.8689 13.0879 26.5259 13.0879 25.6287ZM26.4216 6.72117C26.4613 6.56492 26.5004 6.39159 26.5346 6.19627C26.7367 4.80326 26.5605 3.38151 26.0243 2.08002C25.9566 1.91035 25.8527 1.75753 25.7197 1.63228C25.5868 1.50702 25.4281 1.41236 25.2547 1.35494C24.8097 1.20479 23.1666 0.909373 20.0246 2.91744C17.4127 2.3028 14.6939 2.3028 12.0821 2.91744C8.95276 0.938785 7.31824 1.20729 6.87756 1.34889C6.69989 1.40399 6.5368 1.49814 6.40025 1.62446C6.26369 1.75077 6.15713 1.90604 6.08838 2.07889C5.54125 3.40536 5.36693 4.85611 5.58423 6.27444C5.61475 6.43435 5.6477 6.58206 5.68189 6.71755C4.64635 8.09685 4.09478 9.77925 4.11268 11.5039C4.1093 11.8887 4.12703 12.2734 4.16578 12.6563C4.58328 18.4094 8.33327 20.1367 10.9462 20.73C10.8919 20.8863 10.8424 21.0535 10.7985 21.2305C10.7201 21.5521 10.7726 21.8917 10.9442 22.1747C11.1159 22.4577 11.3928 22.6611 11.7142 22.7403C12.0356 22.8195 12.3753 22.768 12.6588 22.5971C12.9423 22.4262 13.1464 22.1498 13.2264 21.8286C13.306 21.4121 13.5098 21.0295 13.8112 20.7312C13.9934 20.5717 14.1253 20.3627 14.1909 20.1296C14.2564 19.8965 14.2529 19.6494 14.1806 19.4182C14.1083 19.1871 13.9704 18.982 13.7836 18.8278C13.5969 18.6737 13.3694 18.5771 13.1288 18.5498C8.81116 18.0567 6.93676 16.2976 6.65479 12.4268C6.62355 12.1202 6.60949 11.8121 6.61268 11.5039C6.59262 10.2748 6.99871 9.07653 7.76196 8.11282C7.83865 8.01235 7.92034 7.91579 8.00671 7.82351C8.15975 7.65226 8.26265 7.44216 8.3041 7.21627C8.34556 6.99038 8.32397 6.75743 8.24171 6.543C8.15738 6.31741 8.09245 6.08504 8.04763 5.84841C7.94579 5.17556 7.97919 4.48915 8.14588 3.82936C9.23229 4.1362 10.2548 4.63566 11.1646 5.30396C11.3151 5.40418 11.4853 5.47087 11.6638 5.49952C11.8423 5.52816 12.0249 5.51809 12.1992 5.46999C14.7256 4.78436 17.3891 4.78479 19.9152 5.47124C20.0904 5.51929 20.274 5.52878 20.4532 5.49907C20.6325 5.46936 20.8031 5.40114 20.9534 5.29912C21.859 4.62805 22.8772 4.12412 23.96 3.81109C24.126 4.45503 24.1631 5.12541 24.0693 5.78374C24.024 6.04316 23.9533 6.29748 23.8581 6.54302C23.7758 6.75745 23.7543 6.9904 23.7957 7.21629C23.8372 7.44219 23.9401 7.65229 24.0931 7.82354C24.1895 7.93217 24.286 8.04936 24.3726 8.15922C25.1305 9.10662 25.5297 10.2911 25.5 11.5039C25.5023 11.8284 25.4866 12.1528 25.453 12.4756C25.1777 16.2952 23.296 18.0554 18.9583 18.5498C18.7176 18.5772 18.49 18.674 18.3033 18.8283C18.1166 18.9826 17.9788 19.1879 17.9065 19.4191C17.8343 19.6503 17.8308 19.8975 17.8965 20.1307C17.9622 20.3639 18.0942 20.5729 18.2765 20.7324C18.5873 21.0387 18.7916 21.4366 18.8594 21.8677C18.9438 22.2023 18.9827 22.5468 18.9747 22.8919V25.8094C18.9625 26.6187 18.9625 27.2254 18.9625 27.5037C18.9625 27.8352 19.0942 28.1531 19.3286 28.3876C19.563 28.622 19.881 28.7537 20.2125 28.7537C20.544 28.7537 20.862 28.622 21.0964 28.3876C21.3308 28.1531 21.4625 27.8352 21.4625 27.5037C21.4625 27.2327 21.4625 26.6382 21.4747 25.8289V22.8919C21.4848 22.3391 21.4197 21.7876 21.2812 21.2525C21.2416 21.0768 21.1932 20.9032 21.136 20.7325C23.0375 20.4166 24.7653 19.4361 26.0117 17.9657C27.2582 16.4953 27.9424 14.6303 27.9426 12.7027C27.9838 12.3044 28.003 11.9043 28 11.5039C28.0277 9.77739 27.4716 8.09206 26.4216 6.72117Z" fill="black"/>
</svg>
