<svg width="305" height="187" viewBox="0 0 305 187" fill="none" xmlns="http://www.w3.org/2000/svg">
<path fill-rule="evenodd" clip-rule="evenodd" d="M127.204 77.2082L79.5 0L0.258667 128.25H130.998C139.683 150.367 157.343 169.234 181.484 179.152C227.461 198.042 279.535 177.325 297.795 132.88C316.056 88.4354 293.588 37.0925 247.611 18.2028C201.635 -0.686886 149.561 20.0298 131.3 64.4747C129.577 68.6688 128.217 72.9243 127.204 77.2082ZM135.235 90.2052L127.204 77.2082C123.122 94.4838 124.703 112.221 130.998 128.25H141.847C149.985 146.288 165.024 161.578 185.285 169.903C226.45 186.816 272.504 168.124 288.546 129.08C304.587 90.0364 284.977 44.3657 243.811 27.4525C202.645 10.5393 156.591 29.2314 140.55 68.275C137.608 75.435 135.866 82.8178 135.235 90.2052ZM135.235 90.2052L158.741 128.25H141.847C136.483 116.359 134.119 103.275 135.235 90.2052Z" fill="black"/>
<path d="M60.5 55H100.014V178H60.5L60.5 55Z" fill="#E83D1F"/>
</svg>
