<svg width="31" height="30" viewBox="0 0 31 30" fill="none" xmlns="http://www.w3.org/2000/svg">
<path d="M22.375 11.2486C21.2559 11.2482 20.1542 11.525 19.1682 12.0543C19.0782 11.8173 18.9183 11.6133 18.7096 11.4694C18.501 11.3255 18.2535 11.2485 18 11.2486H13C12.8358 11.2485 12.6732 11.2808 12.5215 11.3436C12.3698 11.4064 12.232 11.4985 12.1159 11.6145C11.9998 11.7306 11.9077 11.8685 11.845 12.0202C11.7822 12.1719 11.7499 12.3345 11.75 12.4986V27.4986C11.7499 27.6628 11.7822 27.8254 11.845 27.9771C11.9077 28.1288 11.9998 28.2666 12.1159 28.3827C12.232 28.4988 12.3698 28.5909 12.5215 28.6537C12.6732 28.7165 12.8358 28.7487 13 28.7486H18C18.1642 28.7487 18.3268 28.7165 18.4785 28.6537C18.6302 28.5909 18.768 28.4988 18.8841 28.3827C19.0002 28.2666 19.0923 28.1288 19.155 27.9771C19.2178 27.8254 19.2501 27.6628 19.25 27.4986V20.6236C19.25 20.2921 19.3817 19.9742 19.6161 19.7398C19.8505 19.5053 20.1685 19.3736 20.5 19.3736C20.8315 19.3736 21.1495 19.5053 21.3839 19.7398C21.6183 19.9742 21.75 20.2921 21.75 20.6236V27.4986C21.7499 27.6628 21.7822 27.8254 21.845 27.9771C21.9077 28.1288 21.9998 28.2666 22.1159 28.3827C22.232 28.4988 22.3698 28.5909 22.5215 28.6537C22.6732 28.7165 22.8358 28.7487 23 28.7486H28C28.1642 28.7487 28.3268 28.7165 28.4785 28.6537C28.6302 28.5909 28.768 28.4988 28.8841 28.3827C29.0002 28.2666 29.0923 28.1288 29.155 27.9771C29.2178 27.8254 29.2501 27.6628 29.25 27.4986V18.1236C29.2477 16.301 28.5227 14.5536 27.2339 13.2648C25.945 11.976 24.1977 11.2509 22.375 11.2486ZM26.75 26.2486H24.25V20.6236C24.25 19.6291 23.8549 18.6752 23.1516 17.972C22.4484 17.2687 21.4946 16.8736 20.5 16.8736C19.5054 16.8736 18.5516 17.2687 17.8483 17.972C17.1451 18.6752 16.75 19.6291 16.75 20.6236V26.2486H14.25V13.7486H16.75V14.6276C16.7501 14.8865 16.8307 15.1391 16.9806 15.3504C17.1304 15.5616 17.3421 15.7211 17.5865 15.8069C17.8309 15.8926 18.0959 15.9004 18.3449 15.8291C18.5939 15.7578 18.8146 15.6109 18.9766 15.4088C19.5375 14.6963 20.307 14.1768 21.1775 13.9228C22.048 13.6689 22.9761 13.693 23.8322 13.992C24.6882 14.291 25.4296 14.8499 25.9527 15.5906C26.4758 16.3313 26.7545 17.2169 26.75 18.1236V26.2486ZM9.24999 11.2486H4.24999C4.08582 11.2485 3.92323 11.2808 3.77153 11.3436C3.61983 11.4064 3.48199 11.4985 3.3659 11.6145C3.24981 11.7306 3.15774 11.8685 3.09495 12.0202C3.03217 12.1719 2.9999 12.3345 2.99999 12.4986V27.4986C2.9999 27.6628 3.03217 27.8254 3.09495 27.9771C3.15774 28.1288 3.24981 28.2666 3.3659 28.3827C3.48199 28.4988 3.61983 28.5909 3.77153 28.6537C3.92323 28.7165 4.08582 28.7487 4.24999 28.7486H9.24999C9.41417 28.7487 9.57676 28.7165 9.72846 28.6537C9.88016 28.5909 10.018 28.4988 10.1341 28.3827C10.2502 28.2666 10.3423 28.1288 10.405 27.9771C10.4678 27.8254 10.5001 27.6628 10.5 27.4986V12.4986C10.5001 12.3345 10.4678 12.1719 10.405 12.0202C10.3422 11.8685 10.2502 11.7306 10.1341 11.6145C10.018 11.4985 9.88016 11.4064 9.72846 11.3436C9.57676 11.2808 9.41417 11.2485 9.24999 11.2486ZM7.99999 26.2486H5.49999V13.7486H7.99999V26.2486ZM6.76831 1.92739C6.22126 1.89464 5.67326 1.97351 5.15765 2.15919C4.64204 2.34488 4.16958 2.6335 3.76902 3.0075C3.36845 3.38151 3.04814 3.83308 2.82757 4.33476C2.607 4.83644 2.49077 5.37774 2.48596 5.92575C2.48116 6.47376 2.58787 7.01702 2.7996 7.52249C3.01133 8.02796 3.32367 8.48509 3.71762 8.86606C4.11156 9.24704 4.57888 9.5439 5.09116 9.73861C5.60343 9.93331 6.14996 10.0218 6.69749 9.99864H6.73289C7.28139 10.0312 7.83077 9.95162 8.34746 9.7647C8.86416 9.57779 9.33731 9.28748 9.73802 8.91152C10.1387 8.53557 10.4586 8.08185 10.678 7.57811C10.8974 7.07437 11.0119 6.53117 11.0143 5.98171C11.0167 5.43225 10.907 4.88807 10.692 4.38243C10.477 3.87678 10.1612 3.42028 9.76377 3.04082C9.36637 2.66136 8.89578 2.36692 8.38075 2.17548C7.86572 1.98404 7.31707 1.89962 6.76831 1.92739ZM6.73291 7.49864H6.69749C6.48133 7.52489 6.26205 7.50461 6.05436 7.43917C5.84667 7.37373 5.65537 7.26464 5.4933 7.11922C5.33122 6.97379 5.20212 6.79539 5.11464 6.59598C5.02716 6.39657 4.98333 6.18076 4.98608 5.96302C4.98608 5.0304 5.68554 4.42737 6.76831 4.42737C6.98668 4.39826 7.20876 4.41629 7.41958 4.48023C7.6304 4.54417 7.82507 4.65255 7.99048 4.79806C8.15588 4.94358 8.28819 5.12285 8.37848 5.3238C8.46877 5.52475 8.51495 5.74272 8.51391 5.96302C8.51391 6.89564 7.81444 7.49864 6.73291 7.49864Z" fill="black"/>
</svg>
