<svg width="31" height="30" viewBox="0 0 31 30" fill="none" xmlns="http://www.w3.org/2000/svg">
<g clip-path="url(#clip0_7_24)">
<path d="M27.582 7.23633L15.5527 7.26562L3.52344 7.20703H3.51758C1.90039 7.20703 0.617188 8.72461 0.617188 10.623V26.5254C0.617188 28.4238 1.90039 29.9414 3.51758 29.9414H27.5996C29.2168 29.9414 30.5 28.4238 30.5 26.5254V10.623C30.5 8.72461 29.2285 7.23633 27.582 7.23633ZM26.6387 9.58008L15.8926 19.4063L15.8516 19.4414L15.8164 19.4824C15.6875 19.623 15.5352 19.6406 15.4531 19.6406C15.3711 19.6406 15.2188 19.6172 15.0957 19.4707L15.0605 19.4297L4.78906 9.5332L15.5527 9.60352L26.6387 9.58008ZM27.5996 27.5977H3.51758C3.3125 27.5977 2.96094 27.2109 2.96094 26.5254V10.998L13.3672 21.0527C13.8945 21.6387 14.6387 21.9785 15.4297 21.9902H15.4648C16.2441 21.9902 16.9707 21.668 17.5039 21.1055L28.168 11.3438V26.5254C28.1562 27.2109 27.8047 27.5977 27.5996 27.5977Z" fill="#010002"/>
</g>
<defs>
<clipPath id="clip0_7_24">
<rect width="30" height="30" fill="white" transform="translate(0.5)"/>
</clipPath>
</defs>
</svg>
